<?xml version="1.0" encoding="UTF-8" standalone="no"?>
<!DOCTYPE svg PUBLIC "-//W3C//DTD SVG 1.1//EN"
 "http://www.w3.org/Graphics/SVG/1.1/DTD/svg11.dtd">
<!-- Generated by graphviz version 2.38.0 (20140413.2041)
 -->
<!-- Title: G Pages: 1 -->
<svg width="713pt" height="1168pt"
 viewBox="0.00 0.00 713.38 1168.00" xmlns="http://www.w3.org/2000/svg" xmlns:xlink="http://www.w3.org/1999/xlink">
<g id="graph0" class="graph" transform="scale(1 1) rotate(0) translate(4 1164)">
<title>G</title>
<polygon fill="white" stroke="none" points="-4,4 -4,-1164 709.381,-1164 709.381,4 -4,4"/>
<g id="clust1" class="cluster"><title>cluster_Global</title>
<path fill="none" stroke="gray" d="M490.758,-8C490.758,-8 685.381,-8 685.381,-8 691.381,-8 697.381,-14 697.381,-20 697.381,-20 697.381,-1140 697.381,-1140 697.381,-1146 691.381,-1152 685.381,-1152 685.381,-1152 490.758,-1152 490.758,-1152 484.758,-1152 478.758,-1146 478.758,-1140 478.758,-1140 478.758,-20 478.758,-20 478.758,-14 484.758,-8 490.758,-8"/>
<text text-anchor="middle" x="588.07" y="-1139.2" font-family="Times,serif" font-size="11.00" fill="gray">Global</text>
</g>
<g id="clust2" class="cluster"><title>cluster_\AppBundle</title>
<path fill="none" stroke="gray" d="M498.758,-16C498.758,-16 677.381,-16 677.381,-16 683.381,-16 689.381,-22 689.381,-28 689.381,-28 689.381,-1113 689.381,-1113 689.381,-1119 683.381,-1125 677.381,-1125 677.381,-1125 498.758,-1125 498.758,-1125 492.758,-1125 486.758,-1119 486.758,-1113 486.758,-1113 486.758,-28 486.758,-28 486.758,-22 492.758,-16 498.758,-16"/>
<text text-anchor="middle" x="588.07" y="-1112.2" font-family="Times,serif" font-size="11.00" fill="gray">AppBundle</text>
</g>
<g id="clust3" class="cluster"><title>cluster_\AppBundle\Controller</title>
<path fill="none" stroke="gray" d="M506.758,-319C506.758,-319 669.381,-319 669.381,-319 675.381,-319 681.381,-325 681.381,-331 681.381,-331 681.381,-1086 681.381,-1086 681.381,-1092 675.381,-1098 669.381,-1098 669.381,-1098 506.758,-1098 506.758,-1098 500.758,-1098 494.758,-1092 494.758,-1086 494.758,-1086 494.758,-331 494.758,-331 494.758,-325 500.758,-319 506.758,-319"/>
<text text-anchor="middle" x="588.07" y="-1085.2" font-family="Times,serif" font-size="11.00" fill="gray">Controller</text>
</g>
<g id="clust4" class="cluster"><title>cluster_\AppBundle\Controller\API</title>
<path fill="none" stroke="gray" d="M514.758,-730C514.758,-730 661.381,-730 661.381,-730 667.381,-730 673.381,-736 673.381,-742 673.381,-742 673.381,-1059 673.381,-1059 673.381,-1065 667.381,-1071 661.381,-1071 661.381,-1071 514.758,-1071 514.758,-1071 508.758,-1071 502.758,-1065 502.758,-1059 502.758,-1059 502.758,-742 502.758,-742 502.758,-736 508.758,-730 514.758,-730"/>
<text text-anchor="middle" x="588.07" y="-1058.2" font-family="Times,serif" font-size="11.00" fill="gray">API</text>
</g>
<g id="clust5" class="cluster"><title>cluster_\AppBundle\Controller\Frontend</title>
<path fill="none" stroke="gray" d="M514.758,-327C514.758,-327 661.381,-327 661.381,-327 667.381,-327 673.381,-333 673.381,-339 673.381,-339 673.381,-710 673.381,-710 673.381,-716 667.381,-722 661.381,-722 661.381,-722 514.758,-722 514.758,-722 508.758,-722 502.758,-716 502.758,-710 502.758,-710 502.758,-339 502.758,-339 502.758,-333 508.758,-327 514.758,-327"/>
<text text-anchor="middle" x="588.07" y="-709.2" font-family="Times,serif" font-size="11.00" fill="gray">Frontend</text>
</g>
<g id="clust6" class="cluster"><title>cluster_\AppBundle\Entity</title>
<path fill="none" stroke="gray" d="M547.764,-24C547.764,-24 628.376,-24 628.376,-24 634.376,-24 640.376,-30 640.376,-36 640.376,-36 640.376,-299 640.376,-299 640.376,-305 634.376,-311 628.376,-311 628.376,-311 547.764,-311 547.764,-311 541.764,-311 535.764,-305 535.764,-299 535.764,-299 535.764,-36 535.764,-36 535.764,-30 541.764,-24 547.764,-24"/>
<text text-anchor="middle" x="588.07" y="-298.2" font-family="Times,serif" font-size="11.00" fill="gray">Entity</text>
</g>
<!-- \\AppBundle\\Controller\\API\\PackageController -->
<g id="node1" class="node"><title>\\AppBundle\\Controller\\API\\PackageController</title>
<polygon fill="none" stroke="black" points="652.288,-1044 523.851,-1044 523.851,-1008 652.288,-1008 652.288,-1044"/>
<text text-anchor="middle" x="588.07" y="-1022.7" font-family="Courier,monospace" font-size="11.00">PackageController</text>
</g>
<!-- \\Symfony\\Bundle\\FrameworkBundle\\Controller\\Controller -->
<g id="node19" class="node"><title>\\Symfony\\Bundle\\FrameworkBundle\\Controller\\Controller</title>
<ellipse fill="none" stroke="black" cx="219.379" cy="-677" rx="219.258" ry="18"/>
<text text-anchor="middle" x="219.379" y="-672.8" font-family="Times,serif" font-size="14.00" fill="gray">\Symfony\Bundle\FrameworkBundle\Controller\Controller</text>
</g>
<!-- \\AppBundle\\Controller\\API\\PackageController&#45;&gt;\\Symfony\\Bundle\\FrameworkBundle\\Controller\\Controller -->
<g id="edge1" class="edge"><title>\\AppBundle\\Controller\\API\\PackageController&#45;&gt;\\Symfony\\Bundle\\FrameworkBundle\\Controller\\Controller</title>
<path fill="none" stroke="black" d="M523.809,-1017.48C508.259,-1013.49 492.224,-1007.62 478.758,-999 357.283,-921.234 267.13,-766.761 234.116,-704.227"/>
<polygon fill="none" stroke="black" points="237.037,-702.258 229.312,-695.006 230.829,-705.492 237.037,-702.258"/>
</g>
<!-- \\AppBundle\\Controller\\API\\PackingSlipController -->
<g id="node2" class="node"><title>\\AppBundle\\Controller\\API\\PackingSlipController</title>
<polygon fill="none" stroke="black" points="665.193,-990 510.947,-990 510.947,-954 665.193,-954 665.193,-990"/>
<text text-anchor="middle" x="588.07" y="-968.7" font-family="Courier,monospace" font-size="11.00">PackingSlipController</text>
</g>
<!-- \\AppBundle\\Controller\\API\\PackingSlipController&#45;&gt;\\Symfony\\Bundle\\FrameworkBundle\\Controller\\Controller -->
<g id="edge2" class="edge"><title>\\AppBundle\\Controller\\API\\PackingSlipController&#45;&gt;\\Symfony\\Bundle\\FrameworkBundle\\Controller\\Controller</title>
<path fill="none" stroke="black" d="M510.668,-958.714C499.56,-955.162 488.574,-950.672 478.758,-945 368.767,-881.44 275.359,-757.491 237.911,-703.357"/>
<polygon fill="none" stroke="black" points="240.72,-701.264 232.184,-694.988 234.943,-705.217 240.72,-701.264"/>
</g>
<!-- \\AppBundle\\Controller\\API\\ReceiverController -->
<g id="node3" class="node"><title>\\AppBundle\\Controller\\API\\ReceiverController</title>
<polygon fill="none" stroke="black" points="655.389,-936 520.75,-936 520.75,-900 655.389,-900 655.389,-936"/>
<text text-anchor="middle" x="588.07" y="-914.7" font-family="Courier,monospace" font-size="11.00">ReceiverController</text>
</g>
<!-- \\AppBundle\\Controller\\API\\ReceiverController&#45;&gt;\\Symfony\\Bundle\\FrameworkBundle\\Controller\\Controller -->
<g id="edge3" class="edge"><title>\\AppBundle\\Controller\\API\\ReceiverController&#45;&gt;\\Symfony\\Bundle\\FrameworkBundle\\Controller\\Controller</title>
<path fill="none" stroke="black" d="M520.654,-906.427C506.397,-902.589 491.73,-897.557 478.758,-891 380.192,-841.178 285.889,-747.757 243.608,-702.657"/>
<polygon fill="none" stroke="black" points="245.935,-700.02 236.565,-695.076 240.807,-704.784 245.935,-700.02"/>
</g>
<!-- \\AppBundle\\Controller\\API\\ShipperController -->
<g id="node4" class="node"><title>\\AppBundle\\Controller\\API\\ShipperController</title>
<polygon fill="none" stroke="black" points="652.288,-882 523.851,-882 523.851,-846 652.288,-846 652.288,-882"/>
<text text-anchor="middle" x="588.07" y="-860.7" font-family="Courier,monospace" font-size="11.00">ShipperController</text>
</g>
<!-- \\AppBundle\\Controller\\API\\ShipperController&#45;&gt;\\Symfony\\Bundle\\FrameworkBundle\\Controller\\Controller -->
<g id="edge4" class="edge"><title>\\AppBundle\\Controller\\API\\ShipperController&#45;&gt;\\Symfony\\Bundle\\FrameworkBundle\\Controller\\Controller</title>
<path fill="none" stroke="black" d="M523.849,-851.737C508.776,-847.865 492.953,-842.991 478.758,-837 391.354,-800.11 299.264,-736.108 252.19,-701.279"/>
<polygon fill="none" stroke="black" points="254.046,-698.297 243.936,-695.128 249.863,-703.91 254.046,-698.297"/>
</g>
<!-- \\AppBundle\\Controller\\API\\UserController -->
<g id="node5" class="node"><title>\\AppBundle\\Controller\\API\\UserController</title>
<polygon fill="none" stroke="black" points="642.485,-828 533.654,-828 533.654,-792 642.485,-792 642.485,-828"/>
<text text-anchor="middle" x="588.07" y="-806.7" font-family="Courier,monospace" font-size="11.00">UserController</text>
</g>
<!-- \\AppBundle\\Controller\\API\\UserController&#45;&gt;\\Symfony\\Bundle\\FrameworkBundle\\Controller\\Controller -->
<g id="edge5" class="edge"><title>\\AppBundle\\Controller\\API\\UserController&#45;&gt;\\Symfony\\Bundle\\FrameworkBundle\\Controller\\Controller</title>
<path fill="none" stroke="black" d="M533.746,-798.335C516.088,-794.042 496.437,-788.796 478.758,-783 403.506,-758.329 319.1,-721.989 267.854,-698.914"/>
<polygon fill="none" stroke="black" points="269.234,-695.697 258.68,-694.765 266.35,-702.075 269.234,-695.697"/>
</g>
<!-- \\AppBundle\\Controller\\API\\VendorController -->
<g id="node6" class="node"><title>\\AppBundle\\Controller\\API\\VendorController</title>
<polygon fill="none" stroke="black" points="648.687,-774 527.452,-774 527.452,-738 648.687,-738 648.687,-774"/>
<text text-anchor="middle" x="588.07" y="-752.7" font-family="Courier,monospace" font-size="11.00">VendorController</text>
</g>
<!-- \\AppBundle\\Controller\\API\\VendorController&#45;&gt;\\Symfony\\Bundle\\FrameworkBundle\\Controller\\Controller -->
<g id="edge6" class="edge"><title>\\AppBundle\\Controller\\API\\VendorController&#45;&gt;\\Symfony\\Bundle\\FrameworkBundle\\Controller\\Controller</title>
<path fill="none" stroke="black" d="M527.338,-743.131C467.956,-730.338 376.19,-710.568 308.451,-695.974"/>
<polygon fill="none" stroke="black" points="309.15,-692.545 298.638,-693.86 307.676,-699.388 309.15,-692.545"/>
</g>
<!-- \\AppBundle\\Controller\\Frontend\\BaseController -->
<g id="node7" class="node"><title>\\AppBundle\\Controller\\Frontend\\BaseController</title>
<polygon fill="none" stroke="black" points="642.485,-695 533.654,-695 533.654,-659 642.485,-659 642.485,-695"/>
<text text-anchor="middle" x="588.07" y="-673.7" font-family="Courier,monospace" font-size="11.00">BaseController</text>
</g>
<!-- \\AppBundle\\Controller\\Frontend\\BaseController&#45;&gt;\\Symfony\\Bundle\\FrameworkBundle\\Controller\\Controller -->
<g id="edge7" class="edge"><title>\\AppBundle\\Controller\\Frontend\\BaseController&#45;&gt;\\Symfony\\Bundle\\FrameworkBundle\\Controller\\Controller</title>
<path fill="none" stroke="black" d="M533.75,-677C510.18,-677 480.704,-677 449.325,-677"/>
<polygon fill="none" stroke="black" points="449.076,-673.5 439.075,-677 449.075,-680.5 449.076,-673.5"/>
</g>
<!-- \\AppBundle\\Controller\\Frontend\\DeliveringController -->
<g id="node8" class="node"><title>\\AppBundle\\Controller\\Frontend\\DeliveringController</title>
<polygon fill="none" stroke="black" points="662.091,-641 514.048,-641 514.048,-605 662.091,-605 662.091,-641"/>
<text text-anchor="middle" x="588.07" y="-619.7" font-family="Courier,monospace" font-size="11.00">DeliveringController</text>
</g>
<!-- \\AppBundle\\Controller\\Frontend\\DeliveringController&#45;&gt;\\Symfony\\Bundle\\FrameworkBundle\\Controller\\Controller -->
<g id="edge8" class="edge"><title>\\AppBundle\\Controller\\Frontend\\DeliveringController&#45;&gt;\\Symfony\\Bundle\\FrameworkBundle\\Controller\\Controller</title>
<path fill="none" stroke="black" d="M513.746,-633.798C463.167,-641.246 394.862,-651.305 336.886,-659.843"/>
<polygon fill="none" stroke="black" points="336.317,-656.389 326.934,-661.308 337.337,-663.314 336.317,-656.389"/>
</g>
<!-- \\AppBundle\\Controller\\Frontend\\MaintenanceController -->
<g id="node9" class="node"><title>\\AppBundle\\Controller\\Frontend\\MaintenanceController</title>
<polygon fill="none" stroke="black" points="665.193,-587 510.947,-587 510.947,-551 665.193,-551 665.193,-587"/>
<text text-anchor="middle" x="588.07" y="-565.7" font-family="Courier,monospace" font-size="11.00">MaintenanceController</text>
</g>
<!-- \\AppBundle\\Controller\\Frontend\\MaintenanceController&#45;&gt;\\Symfony\\Bundle\\FrameworkBundle\\Controller\\Controller -->
<g id="edge9" class="edge"><title>\\AppBundle\\Controller\\Frontend\\MaintenanceController&#45;&gt;\\Symfony\\Bundle\\FrameworkBundle\\Controller\\Controller</title>
<path fill="none" stroke="black" d="M512.337,-587.011C501.056,-589.909 489.579,-592.958 478.758,-596 411.371,-614.944 334.961,-639.254 282.822,-656.279"/>
<polygon fill="none" stroke="black" points="281.468,-653.039 273.053,-659.477 283.646,-659.692 281.468,-653.039"/>
</g>
<!-- \\AppBundle\\Controller\\Frontend\\MenuController -->
<g id="node10" class="node"><title>\\AppBundle\\Controller\\Frontend\\MenuController</title>
<polygon fill="none" stroke="black" points="642.485,-533 533.654,-533 533.654,-497 642.485,-497 642.485,-533"/>
<text text-anchor="middle" x="588.07" y="-511.7" font-family="Courier,monospace" font-size="11.00">MenuController</text>
</g>
<!-- \\AppBundle\\Controller\\Frontend\\MenuController&#45;&gt;\\Symfony\\Bundle\\FrameworkBundle\\Controller\\Controller -->
<g id="edge10" class="edge"><title>\\AppBundle\\Controller\\Frontend\\MenuController&#45;&gt;\\Symfony\\Bundle\\FrameworkBundle\\Controller\\Controller</title>
<path fill="none" stroke="black" d="M533.687,-525.652C515.934,-529.891 496.242,-535.362 478.758,-542 396.577,-573.205 306.972,-624.21 257.848,-653.784"/>
<polygon fill="none" stroke="black" points="255.898,-650.873 249.157,-659.047 259.524,-656.861 255.898,-650.873"/>
</g>
<!-- \\AppBundle\\Controller\\Frontend\\ReceivingController -->
<g id="node11" class="node"><title>\\AppBundle\\Controller\\Frontend\\ReceivingController</title>
<polygon fill="none" stroke="black" points="658.991,-479 517.149,-479 517.149,-443 658.991,-443 658.991,-479"/>
<text text-anchor="middle" x="588.07" y="-457.7" font-family="Courier,monospace" font-size="11.00">ReceivingController</text>
</g>
<!-- \\AppBundle\\Controller\\Frontend\\ReceivingController&#45;&gt;\\Symfony\\Bundle\\FrameworkBundle\\Controller\\Controller -->
<g id="edge11" class="edge"><title>\\AppBundle\\Controller\\Frontend\\ReceivingController&#45;&gt;\\Symfony\\Bundle\\FrameworkBundle\\Controller\\Controller</title>
<path fill="none" stroke="black" d="M517.221,-474.176C504.124,-477.821 490.781,-482.371 478.758,-488 385.219,-531.8 291.324,-611.609 246.884,-652.064"/>
<polygon fill="none" stroke="black" points="244.426,-649.569 239.425,-658.909 249.159,-654.726 244.426,-649.569"/>
</g>
<!-- \\AppBundle\\Controller\\Frontend\\ReportingController -->
<g id="node12" class="node"><title>\\AppBundle\\Controller\\Frontend\\ReportingController</title>
<polygon fill="none" stroke="black" points="658.991,-425 517.149,-425 517.149,-389 658.991,-389 658.991,-425"/>
<text text-anchor="middle" x="588.07" y="-403.7" font-family="Courier,monospace" font-size="11.00">ReportingController</text>
</g>
<!-- \\AppBundle\\Controller\\Frontend\\ReportingController&#45;&gt;\\Symfony\\Bundle\\FrameworkBundle\\Controller\\Controller -->
<g id="edge12" class="edge"><title>\\AppBundle\\Controller\\Frontend\\ReportingController&#45;&gt;\\Symfony\\Bundle\\FrameworkBundle\\Controller\\Controller</title>
<path fill="none" stroke="black" d="M517.197,-418.838C503.968,-422.61 490.581,-427.548 478.758,-434 374.261,-491.022 280.246,-600.493 240.471,-650.684"/>
<polygon fill="none" stroke="black" points="237.54,-648.749 234.121,-658.778 243.047,-653.07 237.54,-648.749"/>
</g>
<!-- \\AppBundle\\Controller\\Frontend\\ViewController -->
<g id="node13" class="node"><title>\\AppBundle\\Controller\\Frontend\\ViewController</title>
<polygon fill="none" stroke="black" points="642.485,-371 533.654,-371 533.654,-335 642.485,-335 642.485,-371"/>
<text text-anchor="middle" x="588.07" y="-349.7" font-family="Courier,monospace" font-size="11.00">ViewController</text>
</g>
<!-- \\AppBundle\\Controller\\Frontend\\ViewController&#45;&gt;\\Symfony\\Bundle\\FrameworkBundle\\Controller\\Controller -->
<g id="edge13" class="edge"><title>\\AppBundle\\Controller\\Frontend\\ViewController&#45;&gt;\\Symfony\\Bundle\\FrameworkBundle\\Controller\\Controller</title>
<path fill="none" stroke="black" d="M533.838,-359.583C515.426,-363.544 495.284,-369.878 478.758,-380 362.585,-451.157 270.673,-591.573 235.677,-650.247"/>
<polygon fill="none" stroke="black" points="232.616,-648.547 230.553,-658.939 238.646,-652.101 232.616,-648.547"/>
</g>
<!-- \\AppBundle\\Entity\\Package -->
<g id="node14" class="node"><title>\\AppBundle\\Entity\\Package</title>
<polygon fill="none" stroke="black" points="619.277,-284 556.862,-284 556.862,-248 619.277,-248 619.277,-284"/>
<text text-anchor="middle" x="588.07" y="-262.7" font-family="Courier,monospace" font-size="11.00">Package</text>
</g>
<!-- \\AppBundle\\Entity\\PackingSlip -->
<g id="node15" class="node"><title>\\AppBundle\\Entity\\PackingSlip</title>
<polygon fill="none" stroke="black" points="632.182,-230 543.957,-230 543.957,-194 632.182,-194 632.182,-230"/>
<text text-anchor="middle" x="588.07" y="-208.7" font-family="Courier,monospace" font-size="11.00">PackingSlip</text>
</g>
<!-- \\AppBundle\\Entity\\Receiver -->
<g id="node16" class="node"><title>\\AppBundle\\Entity\\Receiver</title>
<polygon fill="none" stroke="black" points="622.378,-176 553.761,-176 553.761,-140 622.378,-140 622.378,-176"/>
<text text-anchor="middle" x="588.07" y="-154.7" font-family="Courier,monospace" font-size="11.00">Receiver</text>
</g>
<!-- \\AppBundle\\Entity\\Shipper -->
<g id="node17" class="node"><title>\\AppBundle\\Entity\\Shipper</title>
<polygon fill="none" stroke="black" points="619.277,-122 556.862,-122 556.862,-86 619.277,-86 619.277,-122"/>
<text text-anchor="middle" x="588.07" y="-100.7" font-family="Courier,monospace" font-size="11.00">Shipper</text>
</g>
<!-- \\AppBundle\\Entity\\Vendor -->
<g id="node18" class="node"><title>\\AppBundle\\Entity\\Vendor</title>
<polygon fill="none" stroke="black" points="615.677,-68 560.462,-68 560.462,-32 615.677,-32 615.677,-68"/>
<text text-anchor="middle" x="588.07" y="-46.7" font-family="Courier,monospace" font-size="11.00">Vendor</text>
</g>
</g>
</svg>
